<svg width="24" height="24" viewBox="0 0 24 24" fill="none" xmlns="http://www.w3.org/2000/svg">
<g clip-path="url(#clip0_3543_7311)">
<path d="M18.8706 8.41577L18.8587 8.3953C18.8423 8.36127 18.8234 8.32867 18.8023 8.2977L16.5764 4.44938C16.416 4.17219 16.1175 4 15.7973 4H8.13673C7.81601 4 7.51726 4.17259 7.35698 4.45053L5.09478 8.37511C5.07441 8.41049 5.05972 8.44749 5.04934 8.48508C5.0175 8.57105 5 8.66396 5 8.76089V18.8973C5 19.5053 5.49466 20 6.10266 20H17.831C18.439 20 18.9336 19.5053 18.9336 18.8973V8.72374C18.9336 8.71014 18.9332 8.69664 18.9325 8.68321C18.9389 8.59299 18.9193 8.49996 18.8706 8.41577ZM12.4518 4.93785H15.7755L17.5265 7.96514H12.4518V4.93785ZM8.15858 4.93785H11.5139V7.96514H6.41357L8.15858 4.93785ZM17.9958 18.8974C17.9958 18.9882 17.9218 19.0622 17.831 19.0622H6.10266C6.01179 19.0622 5.93785 18.9882 5.93785 18.8974V8.90299H17.9958V18.8974Z" fill="#555770"/>
<path d="M13.5745 13.3724H12.4002V12.197C12.4002 12.0562 12.3442 11.9211 12.2446 11.8215C12.145 11.722 12.01 11.666 11.8692 11.666C11.7283 11.666 11.5933 11.722 11.4937 11.8215C11.3941 11.9211 11.3381 12.0562 11.3381 12.197V13.3724H10.1638C10.023 13.3724 9.88792 13.4283 9.78834 13.5279C9.68876 13.6275 9.63281 13.7625 9.63281 13.9034C9.63281 14.0442 9.68876 14.1792 9.78834 14.2788C9.88792 14.3784 10.023 14.4344 10.1638 14.4344H11.3391V15.6087C11.3391 15.7495 11.3951 15.8846 11.4947 15.9842C11.5943 16.0837 11.7293 16.1397 11.8702 16.1397C12.011 16.1397 12.146 16.0837 12.2456 15.9842C12.3452 15.8846 12.4012 15.7495 12.4012 15.6087V14.4334H13.5755C13.7163 14.4334 13.8514 14.3774 13.951 14.2778C14.0505 14.1782 14.1065 14.0432 14.1065 13.9024C14.1065 13.7615 14.0505 13.6265 13.951 13.5269C13.8514 13.4273 13.7163 13.3714 13.5755 13.3714L13.5745 13.3724Z" fill="#555770"/>
</g>
<defs>
<clipPath id="clip0_3543_7311">
<rect width="24" height="24" rx="4" fill="white"/>
</clipPath>
</defs>
</svg>
