<svg width="32" height="32" viewBox="0 0 32 32" fill="none" xmlns="http://www.w3.org/2000/svg">
<circle cx="16" cy="16" r="16" fill="#DFE8D4"/>
<path fill-rule="evenodd" clip-rule="evenodd" d="M13.2855 20.9713C12.1043 21.1735 10.875 20.2868 10.875 18.925V18.3172C8.09534 17.7628 6 15.2999 6 12.3455V12.217C6 8.78344 8.77157 6 12.1905 6H16.8095C20.2284 6 23 8.78344 23 12.217C23 12.9327 22.8796 13.6201 22.658 14.26C24.6016 14.9181 26 16.7518 26 18.911C26 21.3507 24.2148 23.3748 21.875 23.7571V24.5658C21.875 25.7592 20.4956 26.4287 19.5527 25.6929L17.1435 23.8131C15.3738 23.7011 13.8865 22.5532 13.2855 20.9713ZM21.6792 16.0558C20.5499 17.4987 18.7983 18.4273 16.8306 18.4339L15.0456 19.8785C15.2649 20.9904 16.2484 21.8292 17.4286 21.8292H17.476C17.7151 21.8292 17.9472 21.909 18.1354 22.0558L19.875 23.4132V22.9062C19.875 22.3114 20.3589 21.8292 20.9559 21.8292H21.0714C22.6888 21.8292 24 20.5227 24 18.911C24 17.507 23.0049 16.3346 21.6792 16.0558ZM16.4463 16.4254C16.2384 16.4254 16.0367 16.4968 15.8748 16.6279L12.9763 18.9737C12.9356 19.0066 12.875 18.9776 12.875 18.925V17.2414C12.875 17.1491 12.8598 17.0605 12.8317 16.9778C12.7915 16.8595 12.7251 16.7535 12.6394 16.6668C12.4922 16.5177 12.2881 16.4254 12.0625 16.4254C9.81884 16.4254 8 14.5988 8 12.3455V12.217C8 9.89274 9.87614 8.00856 12.1905 8.00856H16.8095C19.1239 8.00856 21 9.89274 21 12.217C21 14.5412 19.1239 16.4254 16.8095 16.4254H16.4463Z" fill="#61A40E"/>
</svg>
